<svg width="1200" height="630" viewBox="0 0 1200 630" fill="none" xmlns="http://www.w3.org/2000/svg">
<rect width="1200" height="630" fill="#080820"/>
<path d="M692.939 205.65C688.67 201.381 682.184 199 676.19 199H522.66C510.181 199 500 209.181 500 221.66L500.411 408.524C500.411 421.003 510.591 431.184 523.071 431.184H677.34C689.819 431.184 700 421.003 700 408.524L699.589 221.66C699.589 215.585 697.209 209.92 692.939 205.65ZM693.103 408.524C693.103 417.227 686.043 424.287 677.34 424.287H523.071C514.368 424.287 507.307 417.227 507.307 408.524L506.897 221.66C506.897 212.957 513.957 205.897 522.66 205.897H676.19C680.378 205.897 685.14 207.539 688.095 210.494C691.051 213.45 692.693 217.473 692.693 221.66L693.103 408.524Z" fill="#6EC5EE"/>
<path d="M666.995 329.131V251.217C666.995 250.067 666.42 248.918 665.435 248.261C664.45 247.604 663.218 247.522 662.151 248.015L630.296 261.808V239.64C630.296 238.491 629.721 237.342 628.736 236.685C627.75 236.028 626.519 235.946 625.452 236.356L593.596 250.149V227.982C593.596 226.833 593.021 225.683 592.036 225.026C591.051 224.37 589.819 224.287 588.752 224.698L534.811 248.015C533.498 248.59 532.677 249.821 532.677 251.217V329.131C532.677 330.281 533.251 331.43 534.236 332.087C534.811 332.498 535.468 332.662 536.125 332.662C536.617 332.662 537.028 332.58 537.521 332.415L569.376 318.622V340.79C569.376 341.939 569.951 343.089 570.936 343.746C571.511 344.156 572.167 344.32 572.824 344.32C573.317 344.32 573.727 344.238 574.22 344.074L606.076 330.281V352.448C606.076 353.598 606.65 354.747 607.635 355.404C608.21 355.814 608.867 355.979 609.524 355.979C610.016 355.979 610.427 355.897 610.92 355.732L664.778 332.415C666.174 331.841 666.995 330.527 666.995 329.131ZM660.016 326.833L613.136 347.112V327.243L628.161 320.757C629.475 320.182 630.296 318.951 630.296 317.555V276.997L623.317 280.035V315.174L613.136 319.608L606.158 322.645L576.437 335.453V315.585L591.461 309.099C592.775 308.524 593.596 307.292 593.596 305.897V265.338L586.617 268.376V303.516L576.437 307.949L569.458 310.987L539.737 323.795V253.516L586.617 233.237V253.187L571.593 259.673C570.279 260.248 569.458 261.48 569.458 262.875V303.351L576.437 300.314V265.174L586.617 260.741L593.596 257.703L623.317 244.895V264.764L608.292 271.25C606.979 271.824 606.158 273.056 606.158 274.452V314.928L613.136 311.89V276.833L623.317 272.399L630.296 269.361L660.016 256.553V326.833Z" fill="#6EC5EE"/>
<path d="M562.069 378.31C560.181 372.481 554.351 368.951 545.567 368.951C533.251 368.951 525.78 376.094 525.78 386.52C525.78 397.194 533.251 404.172 544.663 404.172C557.8 404.172 563.465 397.112 563.465 387.342C563.465 386.356 563.465 385.289 563.218 384.222H544.828V389.969H555.09C555.255 394.566 550.821 397.686 545.32 397.686C538.26 397.686 534.647 393.335 534.647 386.52C534.647 379.706 538.342 375.19 544.746 375.19C548.522 375.19 551.642 376.75 552.874 380.281L562.069 378.31Z" fill="#6EC5EE"/>
<path d="M587.028 397.604C580.788 397.604 576.847 393.335 576.847 386.521C576.847 379.706 580.788 375.437 587.028 375.437C593.268 375.437 597.209 379.706 597.209 386.521C597.209 393.335 593.268 397.604 587.028 397.604ZM587.028 404.09C598.522 404.09 605.993 397.276 605.993 386.521C605.993 375.765 598.522 368.951 587.028 368.951C575.534 368.951 568.144 375.847 568.144 386.521C568.144 397.194 575.534 404.09 587.028 404.09Z" fill="#6EC5EE"/>
<path d="M628.407 397.44H619.211V388.983H628.489C631.937 388.983 633.661 390.625 633.661 393.171C633.661 395.551 632.019 397.44 628.407 397.44ZM619.211 375.683H627.914C631.445 375.683 632.758 377.407 632.758 379.459C632.758 381.594 631.609 383.482 627.914 383.482H619.211V375.683ZM635.303 385.781C639.409 384.796 641.543 381.923 641.543 378.392C641.543 373.548 638.013 369.936 630.213 369.936H610.837V403.187H630.624C638.752 403.187 642.446 399 642.446 393.745C642.364 389.394 639.983 386.52 635.303 385.781Z" fill="#6EC5EE"/>
<path d="M648.276 369.936V403.187H674.056V396.455H656.65V369.936H648.276Z" fill="#6EC5EE"/>
</svg>
