<svg width="64" height="75" viewBox="0 0 64 75" fill="none" xmlns="http://www.w3.org/2000/svg">
<path d="M61.7406 2.12808C60.3744 0.761905 58.2989 0 56.381 0H7.25123C3.2578 0 0 3.2578 0 7.25123L0.131363 67.0476C0.131363 71.0411 3.38916 74.2989 7.38259 74.2989H56.7488C60.7422 74.2989 64 71.0411 64 67.0476L63.8686 7.25123C63.8686 5.30706 63.1067 3.49425 61.7406 2.12808ZM61.7931 67.0476C61.7931 69.8325 59.5337 72.092 56.7488 72.092H7.38259C4.5977 72.092 2.33826 69.8325 2.33826 67.0476L2.2069 7.25123C2.2069 4.46634 4.46634 2.2069 7.25123 2.2069H56.381C57.7209 2.2069 59.2447 2.73235 60.1905 3.67816C61.1363 4.62397 61.6617 5.91133 61.6617 7.25123L61.7931 67.0476Z" fill="#6EC5EE"/>
<path d="M53.4385 41.6421V16.7094C53.4385 16.3416 53.2546 15.9737 52.9393 15.7636C52.624 15.5534 52.2299 15.5271 51.8884 15.6848L41.6946 20.0985V13.0049C41.6946 12.6371 41.5107 12.2693 41.1955 12.0591C40.8802 11.849 40.4861 11.8227 40.1446 11.954L29.9508 16.3678V9.27424C29.9508 8.90643 29.7669 8.53861 29.4516 8.32843C29.1363 8.11825 28.7423 8.09198 28.4007 8.22334L11.1396 15.6848C10.7193 15.8687 10.4565 16.2627 10.4565 16.7094V41.6421C10.4565 42.0099 10.6405 42.3777 10.9557 42.5879C11.1396 42.7192 11.3498 42.7718 11.56 42.7718C11.7176 42.7718 11.849 42.7455 12.0066 42.693L22.2004 38.2792V45.3728C22.2004 45.7406 22.3843 46.1084 22.6996 46.3186C22.8835 46.4499 23.0937 46.5025 23.3038 46.5025C23.4615 46.5025 23.5928 46.4762 23.7505 46.4237L33.9442 42.0099V49.1035C33.9442 49.4713 34.1281 49.8391 34.4434 50.0493C34.6273 50.1806 34.8375 50.2332 35.0477 50.2332C35.2053 50.2332 35.3367 50.2069 35.4943 50.1544L52.7291 42.693C53.1758 42.5091 53.4385 42.0887 53.4385 41.6421ZM51.2053 40.9064L36.2037 47.3958V41.0378L41.0116 38.9623C41.4319 38.7783 41.6946 38.3843 41.6946 37.9376V24.959L39.4615 25.9311V37.1757L36.2037 38.5944L33.9705 39.5665L24.4598 43.665V37.3071L29.2677 35.2315C29.6881 35.0476 29.9508 34.6535 29.9508 34.2069V21.2283L27.7176 22.2004V33.445L24.4598 34.8637L22.2267 35.8358L12.716 39.9343V17.445L27.7176 10.9557V17.3399L22.9097 19.4155C22.4894 19.5994 22.2267 19.9935 22.2267 20.4401V33.3925L24.4598 32.4204V21.1757L27.7176 19.757L29.9508 18.7849L39.4615 14.6864V21.0444L34.6536 23.1199C34.2332 23.3038 33.9705 23.6979 33.9705 24.1445V37.0969L36.2037 36.1248V24.9064L39.4615 23.4877L41.6946 22.5156L51.2053 18.4171V40.9064Z" fill="#6EC5EE"/>
<path d="M19.8621 57.3793C19.2578 55.5139 17.3925 54.3842 14.5813 54.3842C10.6404 54.3842 8.24963 56.6699 8.24963 60.0066C8.24963 63.422 10.6404 65.6552 14.2923 65.6552C18.4959 65.6552 20.3087 63.3957 20.3087 60.2693C20.3087 59.954 20.3087 59.6125 20.2299 59.2709H14.3449V61.11H17.6289C17.6815 62.5813 16.2628 63.5796 14.5025 63.5796C12.2431 63.5796 11.0871 62.1872 11.0871 60.0066C11.0871 57.8259 12.2693 56.3809 14.3186 56.3809C15.5271 56.3809 16.5255 56.8801 16.9196 58.0098L19.8621 57.3793Z" fill="#6EC5EE"/>
<path d="M27.849 63.5534C25.8523 63.5534 24.5912 62.1872 24.5912 60.0066C24.5912 57.8259 25.8523 56.4598 27.849 56.4598C29.8457 56.4598 31.1068 57.8259 31.1068 60.0066C31.1068 62.1872 29.8457 63.5534 27.849 63.5534ZM27.849 65.6289C31.5271 65.6289 33.9179 63.4483 33.9179 60.0066C33.9179 56.5649 31.5271 54.3842 27.849 54.3842C24.1708 54.3842 21.8063 56.5911 21.8063 60.0066C21.8063 63.422 24.1708 65.6289 27.849 65.6289Z" fill="#6EC5EE"/>
<path d="M41.0902 63.5007H38.1477V60.7947H41.1165C42.2199 60.7947 42.7717 61.3201 42.7717 62.1346C42.7717 62.8965 42.2462 63.5007 41.0902 63.5007ZM38.1477 56.5385H40.9326C42.0623 56.5385 42.4827 57.0902 42.4827 57.747C42.4827 58.4301 42.1149 59.0344 40.9326 59.0344H38.1477V56.5385ZM43.2971 59.77C44.6108 59.4548 45.2938 58.5352 45.2938 57.4055C45.2938 55.8554 44.1641 54.6994 41.6682 54.6994H35.4679V65.3398H41.7996C44.4006 65.3398 45.5828 63.9999 45.5828 62.3185C45.5566 60.926 44.7947 60.0065 43.2971 59.77Z" fill="#6EC5EE"/>
<path d="M47.4482 54.6994V65.3398H55.6978V63.1855H50.128V54.6994H47.4482Z" fill="#6EC5EE"/>
</svg>
