<svg width="16" height="17" viewBox="0 0 16 17" fill="#94B2CD" xmlns="http://www.w3.org/2000/svg">
<path d="M15.8763 15.9723L15.5035 15.6595H3.89561C3.81423 15.6594 3.73551 15.6305 3.67336 15.5779L0.494691 12.8984H0.345033C0.274356 12.8983 0.205338 12.9198 0.147359 12.9603C0.0893794 13.0007 0.0452515 13.058 0.0209724 13.1243C-0.00330671 13.1907 -0.00655936 13.263 0.0116565 13.3313C0.0298724 13.3995 0.0686733 13.4606 0.122786 13.506L3.67426 16.5001C3.73672 16.552 3.8153 16.5805 3.89651 16.5807H15.6541C15.7247 16.5806 15.7937 16.5589 15.8515 16.5183C15.9094 16.4778 15.9534 16.4205 15.9777 16.3541C16.0019 16.2877 16.0052 16.2155 15.9871 16.1472C15.9689 16.079 15.9303 16.0179 15.8763 15.9723Z" />
<path d="M15.8763 14.1296L15.5044 13.816H3.89561C3.81423 13.8159 3.73551 13.787 3.67336 13.7344L0.494691 11.0549H0.345033C0.274356 11.0548 0.205338 11.0763 0.147359 11.1168C0.0893794 11.1572 0.0452515 11.2145 0.0209724 11.2808C-0.00330671 11.3472 -0.00655936 11.4195 0.0116565 11.4877C0.0298724 11.556 0.0686733 11.6171 0.122786 11.6625L3.67426 14.6566C3.73672 14.7085 3.8153 14.737 3.89651 14.7372H15.6541C15.7248 14.7374 15.7938 14.7158 15.8518 14.6754C15.9097 14.635 15.9539 14.5777 15.9782 14.5113C16.0024 14.445 16.0057 14.3727 15.9875 14.3044C15.9693 14.2361 15.9305 14.1751 15.8763 14.1296Z" />
<path d="M15.8763 6.76051L15.5035 6.45223H3.89557C3.81357 6.4492 3.73523 6.41748 3.67422 6.36261L0.494653 3.68579H0.344995C0.274344 3.6859 0.205428 3.70769 0.147562 3.74822C0.0896949 3.78876 0.0456671 3.84608 0.0214284 3.91244C-0.00281031 3.97881 -0.00609138 4.05101 0.0120286 4.1193C0.0301486 4.18759 0.0687961 4.24867 0.122748 4.29428L3.77011 7.369L8.04478 10.9733C8.10709 11.0255 8.18577 11.0541 8.26703 11.054H11.1347L11.5057 11.3677C11.5596 11.4132 11.5983 11.4742 11.6164 11.5424C11.6346 11.6106 11.6313 11.6828 11.6072 11.7491C11.5831 11.8154 11.5392 11.8727 11.4815 11.9133C11.4238 11.9539 11.355 11.9759 11.2844 11.9761H8.26703C8.18559 11.9763 8.10677 11.9474 8.04478 11.8946L4.86253 9.2115H0.344995C0.274344 9.2116 0.205428 9.2334 0.147562 9.27393C0.0896949 9.31447 0.0456671 9.37179 0.0214284 9.43815C-0.00281031 9.50451 -0.00609138 9.57672 0.0120286 9.64501C0.0301486 9.71329 0.0687961 9.77437 0.122748 9.81999L3.67422 12.8149C3.73637 12.8675 3.81509 12.8964 3.89647 12.8965H15.6541C15.7247 12.8964 15.7936 12.8746 15.8515 12.8341C15.9094 12.7935 15.9534 12.7362 15.9776 12.6698C16.0019 12.6035 16.0051 12.5313 15.987 12.463C15.9689 12.3947 15.9303 12.3336 15.8763 12.288L11.1365 8.28935H8.26882C8.18756 8.28941 8.10888 8.26085 8.04657 8.2087L7.04825 7.369H15.6514C15.7222 7.36945 15.7915 7.34805 15.8498 7.30773C15.9081 7.2674 15.9526 7.2101 15.9772 7.14361C16.0017 7.07713 16.0052 7.00469 15.9872 6.93614C15.9692 6.8676 15.9304 6.80627 15.8763 6.76051ZM8.04478 9.12995C8.10677 9.18277 8.18559 9.21169 8.26703 9.2115H11.1347L11.5057 9.52515C11.5598 9.57057 11.5986 9.63151 11.6168 9.69972C11.6351 9.76792 11.6319 9.84008 11.6077 9.90642C11.5835 9.97275 11.5396 10.0301 11.4817 10.0705C11.4239 10.111 11.355 10.1327 11.2844 10.1327H8.26703C8.18577 10.1328 8.10709 10.1042 8.04478 10.0521L4.86253 7.369H5.95584L8.04478 9.12995Z" />
<path d="M15.8763 4.91822L15.5035 4.60457H3.89558C3.81451 4.60424 3.73614 4.57536 3.67423 4.52302L0.49466 1.84351H0.345002C0.274325 1.84333 0.205307 1.86491 0.147328 1.90533C0.0893489 1.94575 0.045221 2.00304 0.0209419 2.06942C-0.00333723 2.13579 -0.00658987 2.20803 0.011626 2.27632C0.0298419 2.34461 0.0686427 2.40564 0.122755 2.4511L3.67423 5.44516C3.73669 5.49705 3.81527 5.52557 3.89647 5.52582H15.6541C15.7247 5.526 15.7938 5.50441 15.8517 5.46399C15.9097 5.42358 15.9538 5.36628 15.9781 5.29991C16.0024 5.23353 16.0057 5.16129 15.9874 5.093C15.9692 5.02471 15.9304 4.96369 15.8763 4.91822Z" />
<path d="M0.122779 0.608492L3.67425 3.60166C3.73671 3.65355 3.8153 3.68206 3.8965 3.68231H15.6541C15.7248 3.68249 15.7938 3.66091 15.8518 3.62049C15.9097 3.58007 15.9539 3.52278 15.9781 3.4564C16.0024 3.39003 16.0057 3.31779 15.9875 3.2495C15.9692 3.18121 15.9304 3.12018 15.8763 3.07472L12.3258 0.0815513C12.2638 0.0287332 12.1849 -0.000190049 12.1035 9.39848e-07H0.345026C0.274375 0.000106169 0.205459 0.0218986 0.147592 0.0624331C0.0897254 0.102968 0.0456976 0.16029 0.0214589 0.226653C-0.0027798 0.293016 -0.00606086 0.365221 0.0120591 0.433509C0.0301791 0.501797 0.0688266 0.562877 0.122779 0.608492Z" />
</svg>
